# xmcd
#
# Track frame offsets:
#	150
#	14676
#	32065
#	48989
#	72197
#	92880
#	108960
#	123920
#	141033
#	176715
#	192673
#	206451
#	218981
#	235257
#	256723
#	272715
#
# Disc length: 3859 seconds
#
# Revision: 0
# Processed by: cddbd v1.5.1PL0 Copyright (c) Steve Scherf et al.
# Submitted via: dBpowerAMP V4.0
#
DISCID=ea0f1110
DTITLE=Lightnin' Moe And His Peace Disturbers - Things Go My Way
DYEAR=1900
DGENRE=
TTITLE0=01 Things Go My Way
TTITLE1=02 Something To Remember
TTITLE2=03 Hotter Than Hot
TTITLE3=04 Cool Daddy O's
TTITLE4=05 True Lover
TTITLE5=06 Sleeping In The Ground
TTITLE6=07 Everything's Alright
TTITLE7=08 Bad Luck Is Falling
TTITLE8=09 Third Degree
TTITLE9=10 Walking On Thin Ice
TTITLE10=11 Snatch It Back
TTITLE11=12 Sufferin' mind
TTITLE12=13 Cool Riding Daddy
TTITLE13=14 Things Gonna Be Alright
TTITLE14=15 Let Me Prove
TTITLE15=16 Telephone Blues
EXTD=
EXTT0=
EXTT1=
EXTT2=
EXTT3=
EXTT4=
EXTT5=
EXTT6=
EXTT7=
EXTT8=
EXTT9=
EXTT10=
EXTT11=
EXTT12=
EXTT13=
EXTT14=
EXTT15=
PLAYORDER=
